<svg xmlns="http://www.w3.org/2000/svg" width="135" height="37.575" viewBox="0 0 135 37.575">
  <g id="Group_1" data-name="Group 1" transform="translate(0 0)">
    <path id="Path_2" data-name="Path 2" d="M234.507,3.863,228.5,5.488l-.005,20c.26,5.034,3.087,6.92,7.982,6.456a8.987,8.987,0,0,0,3.026-.758l-.678-4.359c-.327.038-.65.143-.978.179-1.985.222-3,.05-3.27-2.091-.336-2.668.108-5.709-.074-8.42-.014-.064.045-.215.1-.215h4.35V11.788h-4.444Z" transform="translate(-169.436 -2.865)" fill="#1a133d"/>
    <rect id="Rectangle_87" data-name="Rectangle 87" width="6.133" height="19.782" transform="translate(94.611 8.924)" fill="#1a133d"/>
    <path id="Path_3" data-name="Path 3" d="M286.1,28.707V16.382a3.58,3.58,0,0,1,2.176-2.76c2.767-.926,4.346,1.292,4.335,3.818l0,11.267h6.133V16.07c-.2-4.78-3.39-8.534-8.5-7.415-2,.439-2.618,1.215-3.966,2.536-.055.054-.052.137-.176.1V0h-6.133v28.55c0,.01-.108.156.031.156Z" transform="translate(-207.573 -0.001)" fill="#1a133d"/>
    <path id="Path_4" data-name="Path 4" d="M466.248,47.871c-.725.181-1.438.408-2.177.54-3.167.569-8.279.65-8.9-3.444l12.762-.037c.67-3.882-.135-8.625-3.6-10.965-2.877-1.941-7.386-1.761-10.3,0-5.825,3.517-6.555,13.709-.74,17.563,3.1,2.055,7.762,2.034,11.285,1.252a9.606,9.606,0,0,0,2.481-.828Zm-3.815-7.178h-7.26a4.4,4.4,0,0,1,2.177-3.664,3.5,3.5,0,0,1,5.083,3.664" transform="translate(-333.15 -24.156)" fill="#1a133d"/>
    <path id="Path_5" data-name="Path 5" d="M408.694,11.788,408.6,3.863l-6.011,1.659V25.364c.022,5.857,4.56,7.545,9.7,6.3.216-.052,1.251-.35,1.3-.509l-.679-4.327-1.843.253c-1.148-.019-1.9-.208-2.242-1.389a17.5,17.5,0,0,1-.235-2.449c.191-2.124-.245-4.672,0-6.745.008-.063.029-.215.1-.215h4.35V11.788Z" transform="translate(-298.53 -2.865)" fill="#1a133d"/>
    <path id="Path_6" data-name="Path 6" d="M16.781,28.684a7.761,7.761,0,0,0-.431-10.7C14.18,16,11.5,15.477,8.972,14.233c-1.36-.668-2.846-1.646-2.312-3.411.837-2.766,5.756-2.043,7.827-1.4.6.187,1.163.483,1.767.641l1.311-4.927c-.608-.206-1.193-.478-1.812-.658-5.339-1.558-13.917-.7-15.3,5.834-.974,4.6,1.942,7.46,5.81,9.185,1.712.764,5.873,1.742,6.114,3.951.359,3.3-3.22,3.64-5.664,3.4a17.663,17.663,0,0,1-5.539-1.622c-.02.617-1.3,4.836-1.161,5.055a10.563,10.563,0,0,0,1.711.73c4.572,1.523,11.633,1.549,15.06-2.327" transform="translate(0 -2.822)" fill="#1a133d"/>
    <path id="Path_7" data-name="Path 7" d="M89.959,34.525H83.388L80.039,47.88,76,34.525H69.181l.029.19,7.342,18.141a2.142,2.142,0,0,1-.559,2.221,8.864,8.864,0,0,1-4.845,2.972l1.284,5.092c.292.2,2.459-.515,2.881-.692,5.711-2.392,8.163-9.718,10.142-15.1,1.564-4.251,3-8.554,4.5-12.825" transform="translate(-51.3 -25.601)" fill="#1a133d"/>
    <path id="Path_8" data-name="Path 8" d="M155.8,30.858c.264-1.689.573-3.385.978-5.046.11-.449.213-1.027.362-1.449A15.354,15.354,0,0,1,159.1,21.45c.807-1.027,2.978-3.6,4.264-3.8.328-.052.889-.057,1.047.3a5.556,5.556,0,0,1-.248,2.308c-.705,3.254-1.663,6.456-2.331,9.72-.229,1.313.543,2.258,1.9,1.835a17.074,17.074,0,0,0,4.305-2.572,8.58,8.58,0,0,0,.943-.874c.069-.154-.22-.774-.438-.75-.106.012-1.486,1.021-1.767,1.177a3.354,3.354,0,0,1-1.105.454c-.057-.012-.1-.176-.1-.23a8.682,8.682,0,0,1,.265-1.473c.626-2.975,1.524-5.94,2.142-8.91.233-1.122.9-4.115-1-4.119-1.956,0-5.495,2.833-6.885,4.178-.807.781-1.521,1.649-2.285,2.469-.046.049-.054.148-.062.154-.115.1-.13-.056-.119-.15.2-1.737,1.149-3.728,1.185-5.5.016-.768-.175-1.31-1.034-1.214-1.014.112-3.838,2.325-4.663,3.088-.128.118-.809.764-.846.846-.064.141.167.559.264.67.032.036,0,.1.112.079s1.153-1.026,1.378-1.189c.307-.223,1.133-.813,1.1-.094-.946,4.752-2.1,9.462-3.134,14.2Z" transform="translate(-112.707 -10.711)" fill="#0080c7"/>
    <path id="Path_9" data-name="Path 9" d="M145.2,96.364c.308-2.148,1.41-3.4,3.705-2.852,3.163.758,7.108,4.253,10.438,3.132,2.392-.806,3.393-3.64,3.381-5.958-.148.057-1.081.336-1.119.382-.022.027-.1.55-.151.692-.727,2.119-2.407,2.439-4.362,1.7-3.168-1.193-7.174-4.472-10.642-2.559-1.826,1.008-2.527,3.5-2.314,5.462Z" transform="translate(-106.855 -66.972)" fill="#66ab31"/>
  </g>
</svg>
